<svg width="48" height="48" fill="none" xmlns="http://www.w3.org/2000/svg"><path d="M46.5 8.25a.75.75 0 0 0 .75-.75v-6a.75.75 0 0 0-.75-.75h-6a.75.75 0 0 0-.75.75v2.25H8.25V1.5A.75.75 0 0 0 7.5.75h-6a.75.75 0 0 0-.75.75v6a.75.75 0 0 0 .75.75h2.25v31.5H1.5a.75.75 0 0 0-.75.75v6a.75.75 0 0 0 .75.75h6a.75.75 0 0 0 .75-.75v-2.25h31.5v2.25a.75.75 0 0 0 .75.75h6a.75.75 0 0 0 .75-.75v-6a.75.75 0 0 0-.75-.75h-2.25V8.25h2.25zM2.25 6.75v-4.5h4.5v4.5h-4.5zm4.5 39h-4.5v-4.5h4.5v4.5zm33-5.25v2.25H8.25V40.5a.75.75 0 0 0-.75-.75H5.25V8.25H7.5a.75.75 0 0 0 .75-.75V5.25h31.5V7.5a.75.75 0 0 0 .75.75h2.25v31.5H40.5a.75.75 0 0 0-.75.75zm6 .75v4.5h-4.5v-4.5h4.5zm-4.5-34.5v-4.5h4.5v4.5h-4.5z" fill="#5553FF"/><path d="M33 10.083H15a.75.75 0 0 0-.75.75v6a.75.75 0 0 0 .75.75h1.406a.75.75 0 0 0 .722-.546l.69-2.454h3.932v14.414l-2.432.609a.75.75 0 0 0-.568.727v1.5a.75.75 0 0 0 .75.75h9a.75.75 0 0 0 .75-.75v-1.5a.75.75 0 0 0-.568-.727l-2.432-.609V14.583h3.932l.69 2.454a.75.75 0 0 0 .722.546H33a.75.75 0 0 0 .75-.75v-6a.75.75 0 0 0-.75-.75zm-.75 6h-.088l-.69-2.453a.75.75 0 0 0-.722-.547H25.5a.75.75 0 0 0-.75.75v15.75a.75.75 0 0 0 .568.728l2.432.608v.164h-7.5v-.164l2.432-.608a.75.75 0 0 0 .568-.728v-15.75a.75.75 0 0 0-.75-.75h-5.25a.75.75 0 0 0-.722.547l-.69 2.453h-.088v-4.5h16.5v4.5zm1.5 18h-19.5a.75.75 0 1 0 0 1.5h19.5a.75.75 0 0 0 0-1.5zm-5.63 2.584H13.88a.504.504 0 0 0-.387.195.747.747 0 0 0-.16.471c0 .177.057.347.16.472a.504.504 0 0 0 .387.195h14.24c.145 0 .285-.07.387-.195a.747.747 0 0 0 .16-.472.747.747 0 0 0-.16-.471.504.504 0 0 0-.387-.195z" fill="#4C4C5C"/></svg>