<svg width="48" height="48" viewBox="0 0 48 48" fill="none" xmlns="http://www.w3.org/2000/svg"><path d="M47.346 0H.654A.654.654 0 0 0 0 .654v46.692c0 .361.293.654.654.654h46.692a.654.654 0 0 0 .654-.654V.654A.653.653 0 0 0 47.346 0zm-.653 1.308v5.247H1.308V1.308h45.385zM1.308 46.693V7.863h45.384v38.83H1.308z" fill="#5553FF"/><path d="M5.938 5.86c.985 0 1.785-.8 1.785-1.784s-.8-1.785-1.785-1.785a1.786 1.786 0 0 0 0 3.569zm0-2.261a.477.477 0 1 1 0 .955.477.477 0 0 1 0-.955zm4.404 2.261c.985 0 1.785-.8 1.785-1.784s-.8-1.785-1.785-1.785a1.786 1.786 0 0 0 0 3.569zm0-2.261a.477.477 0 1 1 0 .954.477.477 0 0 1 0-.954zM20.5 37.645a1.964 1.964 0 0 1-1.811-2.716l7-16.826a1.95 1.95 0 0 1 1.062-1.06 1.948 1.948 0 0 1 1.502.002 1.964 1.964 0 0 1 1.058 2.565l-7 16.825a1.95 1.95 0 0 1-1.063 1.06c-.24.1-.494.15-.748.15zm-.25-1.36a.648.648 0 0 0 .5.002.648.648 0 0 0 .354-.354l7-16.825a.655.655 0 0 0-1.208-.503l-7 16.826a.655.655 0 0 0 .353.855zm12.41-1.705a1.955 1.955 0 0 1-1.388-.573 1.963 1.963 0 0 1 0-2.774l3.963-3.963-3.963-3.964a1.948 1.948 0 0 1-.574-1.387c0-.524.203-1.016.574-1.387a1.963 1.963 0 0 1 2.774 0l6.275 6.275a.653.653 0 0 1 0 .925l-6.275 6.275a1.955 1.955 0 0 1-1.387.573zm0-13.315a.654.654 0 0 0-.462 1.116l4.424 4.426a.653.653 0 0 1 0 .924l-4.425 4.426a.654.654 0 0 0 .924.925l5.813-5.813-5.813-5.813a.65.65 0 0 0-.462-.19zM15.341 34.58a1.955 1.955 0 0 1-1.387-.573L7.68 27.73a.653.653 0 0 1 0-.924l6.275-6.275a1.964 1.964 0 0 1 3.348 1.387c0 .524-.204 1.016-.574 1.387l-3.963 3.963 3.963 3.964a1.964 1.964 0 0 1 0 2.773 1.954 1.954 0 0 1-1.387.574zm-6.276-7.31l5.814 5.813a.654.654 0 0 0 .924-.925l-4.425-4.426a.653.653 0 0 1 0-.924l4.425-4.426a.654.654 0 0 0 0-.924.67.67 0 0 0-.924 0L9.065 27.27z" fill="#4C4C5C"/></svg>