<svg height="26" class="text-logo" fill="currentColor" xmlns="http://www.w3.org/2000/svg" viewBox="0 0 400 400"><path d="M333 0H67a67 67 0 0 67 NaN NaN 67 67 0 67 67 NaN NaN 67 67 0 67-67 NaN NaN 67 67 0 0-67 NaN NaNzm29 325a37 37 0 1-37 37 NaNh-472a37 37 0 1-37-37 NaNh324zm0-201H38V75a37 37 0 137-37 NaN NaN 37 37 0 137 37 NaN NaNz"/><rect x="68" y="63" width="38.1" height="38.1" rx="2.4"/><rect x="126" y="63" width="38.1" height="38.1" rx="2.4"/><rect x="184" y="63" width="38.1" height="38.1" rx="2.4"/><rect x="200" y="295" width="114.3" height="38.1" rx="3.3"/><path d="M109 331a3 3 0 5 0 NaN NaN 3 3 0 1-4 NaN NaN 3 3 0 0-4 NaN NaN 3 3 0 0-1 NaN NaN 3 3 0 10 4 NaN NaN 3 3 0 1 4 NaN NaNz"/></svg>